<svg version="1.1" xmlns="http://www.w3.org/2000/svg" viewBox="0 0 1816.9654388427734 2303.928571428572" width="1816.9654388427734" height="2303.928571428572">
  <!-- svg-source:excalidraw -->
  
  <defs>
    <style class="style-fonts">
      @font-face {
        font-family: "Virgil";
        src: url("https://excalidraw.com/Virgil.woff2");
      }
      @font-face {
        font-family: "Cascadia";
        src: url("https://excalidraw.com/Cascadia.woff2");
      }
      @font-face {
        font-family: "Assistant";
        src: url("https://excalidraw.com/Assistant-Regular.woff2");
      }
    </style>
    
  </defs>
  <rect x="0" y="0" width="1816.9654388427734" height="2303.928571428572" fill="#ffffff"></rect><g stroke-linecap="round" transform="translate(10 37.42857142857153) rotate(0 356.5 289)"><path d="M32 0 C199.28 1.6, 367.27 2.46, 681 0 M32 0 C277.16 -0.38, 521.61 0.04, 681 0 M681 0 C701.51 -0.55, 712.95 10.07, 713 32 M681 0 C704.22 1.34, 711.2 12.75, 713 32 M713 32 C713.92 223.98, 715.03 415.27, 713 546 M713 32 C714.48 216.89, 714.33 402.39, 713 546 M713 546 C714.63 567.55, 703.93 576.21, 681 578 M713 546 C712.03 567.26, 701.3 579.39, 681 578 M681 578 C535.71 577.88, 391.14 577.85, 32 578 M681 578 C537.37 575.96, 393.82 576.36, 32 578 M32 578 C11.35 576.91, 0.94 569.21, 0 546 M32 578 C9.88 580.02, -1.12 568.86, 0 546 M0 546 C0.07 424.71, 0.61 303.38, 0 32 M0 546 C-1.43 417.07, -1.21 287.92, 0 32 M0 32 C0.54 10.16, 9.8 -0.2, 32 0 M0 32 C1.73 10.87, 11.85 -1.56, 32 0" stroke="#1e1e1e" stroke-width="2" fill="none"></path></g><g stroke-linecap="round" transform="translate(18 42.42857142857153) rotate(0 83 281.5)"><path d="M32 0 C58.16 1.45, 80.46 -2.2, 134 0 M32 0 C66.85 0.01, 101.1 -1.29, 134 0 M134 0 C154.41 1.59, 164.77 9.14, 166 32 M134 0 C153.05 -0.43, 167.56 9.61, 166 32 M166 32 C165.54 225.96, 166.25 419.19, 166 531 M166 32 C163.99 181.4, 164.49 330.34, 166 531 M166 531 C166.76 551.54, 153.68 561.89, 134 563 M166 531 C166.28 554, 154.72 564.23, 134 563 M134 563 C114.06 560.34, 92.28 560.28, 32 563 M134 563 C108.83 561.68, 83.73 561.19, 32 563 M32 563 C9.41 562.9, 0.45 551.78, 0 531 M32 563 C12.63 563.99, 0.29 550.29, 0 531 M0 531 C-2.13 387.14, -1.37 244.06, 0 32 M0 531 C1.51 392.23, 1.87 253.41, 0 32 M0 32 C-0.24 9.86, 11.63 -1.86, 32 0 M0 32 C-2.06 10.17, 8.6 1.4, 32 0" stroke="#1e1e1e" stroke-width="2" fill="none"></path></g><g stroke-linecap="round" transform="translate(217 72.42857142857153) rotate(0 52.5 59)"><path d="M26.25 0 C42.69 2.32, 58.49 1.81, 78.75 0 M26.25 0 C41.95 -0.47, 58.71 0.26, 78.75 0 M78.75 0 C94.61 1.59, 105.85 7.74, 105 26.25 M78.75 0 C98.55 0.95, 107.06 6.74, 105 26.25 M105 26.25 C104.14 43.22, 103.74 61.25, 105 91.75 M105 26.25 C106.44 40.47, 105.74 55.33, 105 91.75 M105 91.75 C104.71 107.61, 95.3 119.43, 78.75 118 M105 91.75 C106.51 111.43, 98.41 119.01, 78.75 118 M78.75 118 C68.34 116.64, 53.7 119.3, 26.25 118 M78.75 118 C66.63 118.87, 55.48 117.16, 26.25 118 M26.25 118 C10.42 117.63, -0.18 108.57, 0 91.75 M26.25 118 C10.23 118.41, 0.66 107.05, 0 91.75 M0 91.75 C-0.03 64.44, -0.6 38.55, 0 26.25 M0 91.75 C-1.37 74.91, -0.51 57.97, 0 26.25 M0 26.25 C-0.25 8.45, 7.13 1.63, 26.25 0 M0 26.25 C-2.22 7.14, 9.06 0.49, 26.25 0" stroke="#1e1e1e" stroke-width="2" fill="none"></path></g><g stroke-linecap="round" transform="translate(344 76.42857142857153) rotate(0 51 57.5)"><path d="M25.5 0 C39.7 -0.78, 56.38 0.03, 76.5 0 M25.5 0 C38.18 0.74, 50.37 0.3, 76.5 0 M76.5 0 C95.46 1.6, 102.67 10.27, 102 25.5 M76.5 0 C93.95 -0.8, 99.93 6.7, 102 25.5 M102 25.5 C100.38 39.08, 99.92 53.56, 102 89.5 M102 25.5 C100.91 42.85, 101.06 60.81, 102 89.5 M102 89.5 C101.92 108.26, 92.57 116.37, 76.5 115 M102 89.5 C101.43 106.13, 91.51 116.8, 76.5 115 M76.5 115 C61.31 114.75, 46.41 116.76, 25.5 115 M76.5 115 C59.63 114.28, 44.31 114.61, 25.5 115 M25.5 115 C9.55 115.86, -1.96 105.04, 0 89.5 M25.5 115 C10.3 112.87, 1.04 107.61, 0 89.5 M0 89.5 C-2.23 63.24, 1.1 40.15, 0 25.5 M0 89.5 C-0.63 66.05, 0.18 42.33, 0 25.5 M0 25.5 C0.47 6.77, 9.85 -0.36, 25.5 0 M0 25.5 C2.03 9.99, 7.89 0.75, 25.5 0" stroke="#1e1e1e" stroke-width="2" fill="none"></path></g><g transform="translate(233 97.42857142857153) rotate(0 50.109947204589844 12.5)"><text x="0" y="17.52" font-family="Virgil, Segoe UI Emoji" font-size="20px" fill="#1e1e1e" text-anchor="start" style="white-space: pre;" direction="ltr" dominant-baseline="alphabetic">desempeño</text></g><g transform="translate(793.2857142857142 41.428571428571445) rotate(0 228.57142857142867 74.99999999999999)"><text x="0" y="17.52" font-family="Virgil, Segoe UI Emoji" font-size="20px" fill="#1e1e1e" text-anchor="start" style="white-space: pre;" direction="ltr" dominant-baseline="alphabetic">FULL NAME</text><text x="0" y="42.519999999999996" font-family="Virgil, Segoe UI Emoji" font-size="20px" fill="#1e1e1e" text-anchor="start" style="white-space: pre;" direction="ltr" dominant-baseline="alphabetic">DNI</text><text x="0" y="67.52" font-family="Virgil, Segoe UI Emoji" font-size="20px" fill="#1e1e1e" text-anchor="start" style="white-space: pre;" direction="ltr" dominant-baseline="alphabetic">CARGO</text><text x="0" y="92.52" font-family="Virgil, Segoe UI Emoji" font-size="20px" fill="#1e1e1e" text-anchor="start" style="white-space: pre;" direction="ltr" dominant-baseline="alphabetic">UBICACION ADM</text><text x="0" y="117.52" font-family="Virgil, Segoe UI Emoji" font-size="20px" fill="#1e1e1e" text-anchor="start" style="white-space: pre;" direction="ltr" dominant-baseline="alphabetic">PERIODO EVALUADO</text><text x="0" y="142.52" font-family="Virgil, Segoe UI Emoji" font-size="20px" fill="#1e1e1e" text-anchor="start" style="white-space: pre;" direction="ltr" dominant-baseline="alphabetic">FECHA DE EVALUACION</text></g><g stroke-linecap="round" transform="translate(776.1428571428569 10) rotate(0 157.85714285714312 101.42857142857143)"><path d="M32 0 C122.73 -2.15, 212.46 -1.1, 283.71 0 M32 0 C86.45 -0.12, 139.91 -0.15, 283.71 0 M283.71 0 C303.66 -0.9, 316.14 10.64, 315.71 32 M283.71 0 C306.76 0.01, 314.93 12.96, 315.71 32 M315.71 32 C318.39 76.12, 317.24 120.64, 315.71 170.86 M315.71 32 C315.8 68.5, 315.44 106.31, 315.71 170.86 M315.71 170.86 C317.64 192.75, 303.89 202.41, 283.71 202.86 M315.71 170.86 C313.52 193.6, 304.08 201.75, 283.71 202.86 M283.71 202.86 C217.68 201.34, 153.29 203.49, 32 202.86 M283.71 202.86 C206.54 202.69, 130.03 202.75, 32 202.86 M32 202.86 C9.04 203.62, 0.73 190.77, 0 170.86 M32 202.86 C10.07 201.12, 0.4 192.57, 0 170.86 M0 170.86 C0.61 131.57, -1.45 94.35, 0 32 M0 170.86 C-0.51 118.89, -0.77 68.38, 0 32 M0 32 C-0.6 10.45, 10.85 -1.91, 32 0 M0 32 C1.35 9.55, 9.02 0.69, 32 0" stroke="#1e1e1e" stroke-width="2" fill="none"></path></g><g transform="translate(796.1428571428569 237.1428571428572) rotate(0 350.56982421875 287.5)"><text x="0" y="17.52" font-family="Virgil, Segoe UI Emoji" font-size="20px" fill="#1e1e1e" text-anchor="start" style="white-space: pre;" direction="ltr" dominant-baseline="alphabetic">fase 1 tECNOLOGIA</text><text x="0" y="42.519999999999996" font-family="Virgil, Segoe UI Emoji" font-size="20px" fill="#1e1e1e" text-anchor="start" style="white-space: pre;" direction="ltr" dominant-baseline="alphabetic"></text><text x="0" y="67.52" font-family="Virgil, Segoe UI Emoji" font-size="20px" fill="#1e1e1e" text-anchor="start" style="white-space: pre;" direction="ltr" dominant-baseline="alphabetic">EVALUACION DE LOS OBJ DE</text><text x="0" y="92.52" font-family="Virgil, Segoe UI Emoji" font-size="20px" fill="#1e1e1e" text-anchor="start" style="white-space: pre;" direction="ltr" dominant-baseline="alphabetic">DESEMPEÑO INDIVIDUAL </text><text x="0" y="117.52" font-family="Virgil, Segoe UI Emoji" font-size="20px" fill="#1e1e1e" text-anchor="start" style="white-space: pre;" direction="ltr" dominant-baseline="alphabetic">(ODI)</text><text x="0" y="142.52" font-family="Virgil, Segoe UI Emoji" font-size="20px" fill="#1e1e1e" text-anchor="start" style="white-space: pre;" direction="ltr" dominant-baseline="alphabetic">-----------------------------------------</text><text x="0" y="167.52" font-family="Virgil, Segoe UI Emoji" font-size="20px" fill="#1e1e1e" text-anchor="start" style="white-space: pre;" direction="ltr" dominant-baseline="alphabetic">CINCO OBJ:</text><text x="0" y="192.52" font-family="Virgil, Segoe UI Emoji" font-size="20px" fill="#1e1e1e" text-anchor="start" style="white-space: pre;" direction="ltr" dominant-baseline="alphabetic"> * CREAR TABLA</text><text x="0" y="217.52" font-family="Virgil, Segoe UI Emoji" font-size="20px" fill="#1e1e1e" text-anchor="start" style="white-space: pre;" direction="ltr" dominant-baseline="alphabetic"> * OBJ 1, EFECTUAR DIARIAMENTE </text><text x="0" y="242.52" font-family="Virgil, Segoe UI Emoji" font-size="20px" fill="#1e1e1e" text-anchor="start" style="white-space: pre;" direction="ltr" dominant-baseline="alphabetic">MANTENIMIENTO CORRETIVO Y PREVENTIVO</text><text x="0" y="267.52" font-family="Virgil, Segoe UI Emoji" font-size="20px" fill="#1e1e1e" text-anchor="start" style="white-space: pre;" direction="ltr" dominant-baseline="alphabetic">DE MAQUINAS Y EQUIPOS TECH</text><text x="0" y="292.52" font-family="Virgil, Segoe UI Emoji" font-size="20px" fill="#1e1e1e" text-anchor="start" style="white-space: pre;" direction="ltr" dominant-baseline="alphabetic"> * OBJ 2, EFECTUAR CADA 15 DIAS </text><text x="0" y="317.52" font-family="Virgil, Segoe UI Emoji" font-size="20px" fill="#1e1e1e" text-anchor="start" style="white-space: pre;" direction="ltr" dominant-baseline="alphabetic">INSTALACION Y MANTENIMIENTO CORRECTIVO DE</text><text x="0" y="342.52" font-family="Virgil, Segoe UI Emoji" font-size="20px" fill="#1e1e1e" text-anchor="start" style="white-space: pre;" direction="ltr" dominant-baseline="alphabetic">CCTV BAJO PROGRAMA IP PARA EJECUTAR EN LAS PANTALLAS</text><text x="0" y="367.52" font-family="Virgil, Segoe UI Emoji" font-size="20px" fill="#1e1e1e" text-anchor="start" style="white-space: pre;" direction="ltr" dominant-baseline="alphabetic">DE LA CENTRAL DE CAMARA</text><text x="0" y="392.52" font-family="Virgil, Segoe UI Emoji" font-size="20px" fill="#1e1e1e" text-anchor="start" style="white-space: pre;" direction="ltr" dominant-baseline="alphabetic"> * OBJ 3, SUPERVISAR, EFECTUAR Y CONTROLAR LAS REDES</text><text x="0" y="417.52" font-family="Virgil, Segoe UI Emoji" font-size="20px" fill="#1e1e1e" text-anchor="start" style="white-space: pre;" direction="ltr" dominant-baseline="alphabetic">LAN CADA DOS O TRES A LA SEMANA</text><text x="0" y="442.52" font-family="Virgil, Segoe UI Emoji" font-size="20px" fill="#1e1e1e" text-anchor="start" style="white-space: pre;" direction="ltr" dominant-baseline="alphabetic"> * OBJ 4, EFECTUAR SOPORTE DE MANTENIMIENTO AL SISTEMA </text><text x="0" y="467.52" font-family="Virgil, Segoe UI Emoji" font-size="20px" fill="#1e1e1e" text-anchor="start" style="white-space: pre;" direction="ltr" dominant-baseline="alphabetic">DE AUDIO CADA 15 DIAS</text><text x="0" y="492.52" font-family="Virgil, Segoe UI Emoji" font-size="20px" fill="#1e1e1e" text-anchor="start" style="white-space: pre;" direction="ltr" dominant-baseline="alphabetic"> * OBJ 5, ADMINISTRAR Y EJECUTAR SERVIDOR DE POLITICAS</text><text x="0" y="517.52" font-family="Virgil, Segoe UI Emoji" font-size="20px" fill="#1e1e1e" text-anchor="start" style="white-space: pre;" direction="ltr" dominant-baseline="alphabetic">SEMANALMENTE</text><text x="0" y="542.52" font-family="Virgil, Segoe UI Emoji" font-size="20px" fill="#1e1e1e" text-anchor="start" style="white-space: pre;" direction="ltr" dominant-baseline="alphabetic">-----------------------------------------------</text><text x="0" y="567.52" font-family="Virgil, Segoe UI Emoji" font-size="20px" fill="#1e1e1e" text-anchor="start" style="white-space: pre;" direction="ltr" dominant-baseline="alphabetic"></text></g><g stroke-linecap="round" transform="translate(789 798.5714285714287) rotate(0 420 165.71428571428578)"><path d="M32 0 C333.33 -3.01, 632.73 -2.99, 808 0 M32 0 C258.88 1.74, 486.49 1.68, 808 0 M808 0 C829.77 -1.94, 839.94 8.68, 840 32 M808 0 C827.7 0.72, 838.31 11.52, 840 32 M840 32 C840.24 103.94, 839.99 177.41, 840 299.43 M840 32 C840.94 139.15, 840.71 245.39, 840 299.43 M840 299.43 C841.42 320.72, 827.51 333.35, 808 331.43 M840 299.43 C837.77 321.22, 828.62 330.79, 808 331.43 M808 331.43 C531.09 332.56, 255.69 331.86, 32 331.43 M808 331.43 C497.36 331.18, 187.57 331.28, 32 331.43 M32 331.43 C10.8 331.1, -1.66 319.99, 0 299.43 M32 331.43 C10.71 331.29, -0.66 319.83, 0 299.43 M0 299.43 C0.45 236.75, 1.67 175.57, 0 32 M0 299.43 C-1 228.78, -0.66 158.33, 0 32 M0 32 C-1.52 11.38, 11.46 1.35, 32 0 M0 32 C0.67 12.03, 10.33 -0.6, 32 0" stroke="#1e1e1e" stroke-width="2" fill="none"></path></g><g transform="translate(811.8571428571431 817.1428571428573) rotate(0 10.559989929199219 12.5)"><text x="0" y="17.52" font-family="Virgil, Segoe UI Emoji" font-size="20px" fill="#1e1e1e" text-anchor="start" style="white-space: pre;" direction="ltr" dominant-baseline="alphabetic">N°</text></g><g transform="translate(859.8685814993723 814.6428571428573) rotate(0 58.52996826171875 12.5)"><text x="0" y="17.52" font-family="Virgil, Segoe UI Emoji" font-size="20px" fill="#1e1e1e" text-anchor="start" style="white-space: pre;" direction="ltr" dominant-baseline="alphabetic">OBJETIVO </text></g><g stroke-linecap="round"><g transform="translate(853.2857142857142 810) rotate(0 0 152.1428571428571)"><path d="M0.4 -0.69 C0.52 50.37, 0.58 254.66, 0.43 305.38 M-0.86 1.56 C-0.83 52.41, -0.18 253.33, -0.29 303.83" stroke="#1e1e1e" stroke-width="2" fill="none"></path></g></g><mask></mask><g stroke-linecap="round"><g transform="translate(996.3117532229458 804.7984384700655) rotate(0 0 152.1428571428571)"><path d="M1.08 -0.35 C1.18 50.39, -0.19 254.21, -0.34 304.94 M0.19 -1.59 C0.19 48.77, -1.35 252.03, -1.47 303.16" stroke="#1e1e1e" stroke-width="2" fill="none"></path></g></g><mask></mask><g stroke-linecap="round"><g transform="translate(1137.7604734133565 805.4655718006801) rotate(0 0 152.14285714285717)"><path d="M0.8 0.78 C0.68 51.47, 0.59 254.43, 0.29 304.96 M-0.23 0.15 C-0.58 50.41, -0.77 252.37, -0.5 303.19" stroke="#1e1e1e" stroke-width="2" fill="none"></path></g></g><mask></mask><g stroke-linecap="round"><g transform="translate(1208.913369924102 844.5895540537547) rotate(0 0 152.1428571428571)"><path d="M-0.91 -0.11 C-0.85 50.63, 0 254.03, 0.15 304.96 M0.81 -1.21 C0.74 49.13, -0.45 252.37, -0.71 303.18" stroke="#1e1e1e" stroke-width="2" fill="none"></path></g></g><mask></mask><g stroke-linecap="round"><g transform="translate(1301.7705127812437 851.7324111966118) rotate(0 0 152.1428571428571)"><path d="M0.28 0.69 C0.49 51.6, 0.58 254.64, 0.41 305.44 M-1.03 0 C-0.87 50.61, -0.79 253.3, -0.32 303.92" stroke="#1e1e1e" stroke-width="2" fill="none"></path></g></g><mask></mask><g stroke-linecap="round"><g transform="translate(1404.6276556383873 847.4466969108978) rotate(0 0 152.1428571428571)"><path d="M0.02 -1.19 C0.09 49.64, 1.15 252.8, 1.1 303.85 M-1.44 0.8 C-1.47 51.89, 0.69 254.75, 0.72 305.17" stroke="#1e1e1e" stroke-width="2" fill="none"></path></g></g><mask></mask><g stroke-linecap="round"><g transform="translate(1504.6276556383882 816.018125482326) rotate(0 0 152.1428571428571)"><path d="M-1.09 -0.05 C-1.01 50.67, -0.67 254.67, -0.67 305.42 M0.55 -1.12 C1.12 49.8, 1.57 252.73, 1.68 303.9" stroke="#1e1e1e" stroke-width="2" fill="none"></path></g></g><mask></mask><g stroke-linecap="round"><g transform="translate(1174.7142857142858 844.2857142857144) rotate(0 152.8571428571429 0.7142857142856656)"><path d="M0.57 0.3 C51.66 0.52, 254.85 1.3, 305.64 1.6 M-0.59 -0.59 C50.41 -0.18, 253.83 3.12, 304.66 3.23" stroke="#1e1e1e" stroke-width="2" fill="none"></path></g></g><mask></mask><g transform="translate(1284.755746023996 807.5000000000002) rotate(0 67.51995849609375 12.5)"><text x="0" y="17.52" font-family="Virgil, Segoe UI Emoji" font-size="20px" fill="#1e1e1e" text-anchor="start" style="white-space: pre;" direction="ltr" dominant-baseline="alphabetic">PUNTUACION</text></g><g transform="translate(1029.0414603097097 814.642857142857) rotate(0 31.759986877441406 12.5)"><text x="0" y="17.52" font-family="Virgil, Segoe UI Emoji" font-size="20px" fill="#1e1e1e" text-anchor="start" style="white-space: pre;" direction="ltr" dominant-baseline="alphabetic">VALOR</text></g><g transform="translate(1517.6128888811386 814.6428571428572) rotate(0 35.889976501464844 12.5)"><text x="0" y="17.52" font-family="Virgil, Segoe UI Emoji" font-size="20px" fill="#1e1e1e" text-anchor="start" style="white-space: pre;" direction="ltr" dominant-baseline="alphabetic">TOTAL</text></g><g transform="translate(1525.9671663556783 928.9285714285716) rotate(0 34.009971618652344 12.5)"><text x="0" y="17.52" font-family="Virgil, Segoe UI Emoji" font-size="20px" fill="#1e1e1e" text-anchor="start" style="white-space: pre;" direction="ltr" dominant-baseline="alphabetic">60PTS</text></g><g transform="translate(1170.252880641393 864.6428571428573) rotate(0 6.879997253417969 12.5)"><text x="0" y="17.52" font-family="Virgil, Segoe UI Emoji" font-size="20px" fill="#1e1e1e" text-anchor="start" style="white-space: pre;" direction="ltr" dominant-baseline="alphabetic">0</text></g><g transform="translate(1243.1100234985356 867.5) rotate(0 2.7099990844726562 12.5)"><text x="0" y="17.52" font-family="Virgil, Segoe UI Emoji" font-size="20px" fill="#1e1e1e" text-anchor="start" style="white-space: pre;" direction="ltr" dominant-baseline="alphabetic">1</text></g><g transform="translate(1341.6814520699631 863.2142857142858) rotate(0 7.1199951171875 12.5)"><text x="0" y="17.52" font-family="Virgil, Segoe UI Emoji" font-size="20px" fill="#1e1e1e" text-anchor="start" style="white-space: pre;" direction="ltr" dominant-baseline="alphabetic">2</text></g><g transform="translate(1454.5385949271063 871.7857142857144) rotate(0 6.80999755859375 12.5)"><text x="0" y="17.52" font-family="Virgil, Segoe UI Emoji" font-size="20px" fill="#1e1e1e" text-anchor="start" style="white-space: pre;" direction="ltr" dominant-baseline="alphabetic">3</text></g><g stroke-linecap="round"><g transform="translate(1498.2825055803569 356.2100574502341) rotate(0 0 5.684341886080802e-14)"><path d="M-0.3 0.32 C-0.26 0.4, 0.07 0.32, 0.11 0.28 M0.2 0.17 C0.2 0.18, -0.03 -0.26, -0.11 -0.21" stroke="#1e1e1e" stroke-width="2" fill="none"></path></g><g transform="translate(1498.2825055803569 356.2100574502341) rotate(0 0 5.684341886080802e-14)"><path d="M-0.11 -0.21 C-0.11 -0.21, -0.11 -0.21, -0.11 -0.21 M-0.11 -0.21 C-0.11 -0.21, -0.11 -0.21, -0.11 -0.21" stroke="#1e1e1e" stroke-width="2" fill="none"></path></g><g transform="translate(1498.2825055803569 356.2100574502341) rotate(0 0 5.684341886080802e-14)"><path d="M-0.11 -0.21 C-0.11 -0.21, -0.11 -0.21, -0.11 -0.21 M-0.11 -0.21 C-0.11 -0.21, -0.11 -0.21, -0.11 -0.21" stroke="#1e1e1e" stroke-width="2" fill="none"></path></g></g><mask></mask><g transform="translate(1511.8571428571431 344.28571428571433) rotate(0 147.07992553710938 12.5)"><text x="0" y="17.52" font-family="Virgil, Segoe UI Emoji" font-size="20px" fill="#1e1e1e" text-anchor="start" style="white-space: pre;" direction="ltr" dominant-baseline="alphabetic">NOTA: MINIMO 2, MAXIMO 5</text></g><g transform="translate(807.5714285714284 1158.5714285714287) rotate(0 266.91986083984375 187.5)"><text x="0" y="17.52" font-family="Virgil, Segoe UI Emoji" font-size="20px" fill="#1e1e1e" text-anchor="start" style="white-space: pre;" direction="ltr" dominant-baseline="alphabetic">FASE 2 </text><text x="0" y="42.519999999999996" font-family="Virgil, Segoe UI Emoji" font-size="20px" fill="#1e1e1e" text-anchor="start" style="white-space: pre;" direction="ltr" dominant-baseline="alphabetic"></text><text x="0" y="67.52" font-family="Virgil, Segoe UI Emoji" font-size="20px" fill="#1e1e1e" text-anchor="start" style="white-space: pre;" direction="ltr" dominant-baseline="alphabetic">-------------------</text><text x="0" y="92.52" font-family="Virgil, Segoe UI Emoji" font-size="20px" fill="#1e1e1e" text-anchor="start" style="white-space: pre;" direction="ltr" dominant-baseline="alphabetic">EVALUACION DE LAS COMPETENCIAS </text><text x="0" y="117.52" font-family="Virgil, Segoe UI Emoji" font-size="20px" fill="#1e1e1e" text-anchor="start" style="white-space: pre;" direction="ltr" dominant-baseline="alphabetic">PARA EL NIVEL TECNICO PROFECIONAL</text><text x="0" y="142.52" font-family="Virgil, Segoe UI Emoji" font-size="20px" fill="#1e1e1e" text-anchor="start" style="white-space: pre;" direction="ltr" dominant-baseline="alphabetic">---------------------------------------------</text><text x="0" y="167.52" font-family="Virgil, Segoe UI Emoji" font-size="20px" fill="#1e1e1e" text-anchor="start" style="white-space: pre;" direction="ltr" dominant-baseline="alphabetic">OBJ:</text><text x="0" y="192.52" font-family="Virgil, Segoe UI Emoji" font-size="20px" fill="#1e1e1e" text-anchor="start" style="white-space: pre;" direction="ltr" dominant-baseline="alphabetic"> * CONCIENCIA CON EL DEBER SOCIAL</text><text x="0" y="217.52" font-family="Virgil, Segoe UI Emoji" font-size="20px" fill="#1e1e1e" text-anchor="start" style="white-space: pre;" direction="ltr" dominant-baseline="alphabetic"> * COMPROMISO ETICO CON EL SERVICIO OCULTO</text><text x="0" y="242.52" font-family="Virgil, Segoe UI Emoji" font-size="20px" fill="#1e1e1e" text-anchor="start" style="white-space: pre;" direction="ltr" dominant-baseline="alphabetic"> * CONCIENCIA Y COMPROMISO INSTITUCIONAL</text><text x="0" y="267.52" font-family="Virgil, Segoe UI Emoji" font-size="20px" fill="#1e1e1e" text-anchor="start" style="white-space: pre;" direction="ltr" dominant-baseline="alphabetic"> * CONFIDENCIALIDAD</text><text x="0" y="292.52" font-family="Virgil, Segoe UI Emoji" font-size="20px" fill="#1e1e1e" text-anchor="start" style="white-space: pre;" direction="ltr" dominant-baseline="alphabetic"> * CALIDAD DE SERVICIOS</text><text x="0" y="317.52" font-family="Virgil, Segoe UI Emoji" font-size="20px" fill="#1e1e1e" text-anchor="start" style="white-space: pre;" direction="ltr" dominant-baseline="alphabetic"> * INICIATIVA Y CREATIVIDAD</text><text x="0" y="342.52" font-family="Virgil, Segoe UI Emoji" font-size="20px" fill="#1e1e1e" text-anchor="start" style="white-space: pre;" direction="ltr" dominant-baseline="alphabetic"> * CAPACIDAD DE ANALISIS Y SINTESIS</text><text x="0" y="367.52" font-family="Virgil, Segoe UI Emoji" font-size="20px" fill="#1e1e1e" text-anchor="start" style="white-space: pre;" direction="ltr" dominant-baseline="alphabetic"> * TRABAJO EN EQUIPO</text></g><g transform="translate(389 871.4285714285716) rotate(0 104.88993835449219 150)"><text x="0" y="17.52" font-family="Virgil, Segoe UI Emoji" font-size="20px" fill="#1e1e1e" text-anchor="start" style="white-space: pre;" direction="ltr" dominant-baseline="alphabetic">TIC</text><text x="0" y="42.519999999999996" font-family="Virgil, Segoe UI Emoji" font-size="20px" fill="#1e1e1e" text-anchor="start" style="white-space: pre;" direction="ltr" dominant-baseline="alphabetic">ADM</text><text x="0" y="67.52" font-family="Virgil, Segoe UI Emoji" font-size="20px" fill="#1e1e1e" text-anchor="start" style="white-space: pre;" direction="ltr" dominant-baseline="alphabetic">LEGAL</text><text x="0" y="92.52" font-family="Virgil, Segoe UI Emoji" font-size="20px" fill="#1e1e1e" text-anchor="start" style="white-space: pre;" direction="ltr" dominant-baseline="alphabetic">RRHH</text><text x="0" y="117.52" font-family="Virgil, Segoe UI Emoji" font-size="20px" fill="#1e1e1e" text-anchor="start" style="white-space: pre;" direction="ltr" dominant-baseline="alphabetic">PLANIFICACION</text><text x="0" y="142.52" font-family="Virgil, Segoe UI Emoji" font-size="20px" fill="#1e1e1e" text-anchor="start" style="white-space: pre;" direction="ltr" dominant-baseline="alphabetic">PRENSA</text><text x="0" y="167.52" font-family="Virgil, Segoe UI Emoji" font-size="20px" fill="#1e1e1e" text-anchor="start" style="white-space: pre;" direction="ltr" dominant-baseline="alphabetic">RECAUDACION</text><text x="0" y="192.52" font-family="Virgil, Segoe UI Emoji" font-size="20px" fill="#1e1e1e" text-anchor="start" style="white-space: pre;" direction="ltr" dominant-baseline="alphabetic">COMERCIALIZACION</text><text x="0" y="217.52" font-family="Virgil, Segoe UI Emoji" font-size="20px" fill="#1e1e1e" text-anchor="start" style="white-space: pre;" direction="ltr" dominant-baseline="alphabetic"></text><text x="0" y="242.52" font-family="Virgil, Segoe UI Emoji" font-size="20px" fill="#1e1e1e" text-anchor="start" style="white-space: pre;" direction="ltr" dominant-baseline="alphabetic">8 ARRIBA</text><text x="0" y="267.52" font-family="Virgil, Segoe UI Emoji" font-size="20px" fill="#1e1e1e" text-anchor="start" style="white-space: pre;" direction="ltr" dominant-baseline="alphabetic"></text><text x="0" y="292.52" font-family="Virgil, Segoe UI Emoji" font-size="20px" fill="#1e1e1e" text-anchor="start" style="white-space: pre;" direction="ltr" dominant-baseline="alphabetic"></text></g><g stroke-linecap="round"><g transform="translate(1498.2825055803569 242.5040849468298) rotate(0 -103.21268136160688 2.3193860980136662)"><path d="M0.3 0.48 C-34.16 1.2, -171.94 3.18, -206.42 3.73 M-0.99 -0.31 C-35.65 0.59, -172.97 3.96, -207.37 4.79" stroke="#1e1e1e" stroke-width="2" fill="none"></path></g><g transform="translate(1498.2825055803569 242.5040849468298) rotate(0 -103.21268136160688 2.3193860980136662)"><path d="M-184.09 -4.33 C-191.02 -1.25, -201.02 1.53, -207.37 4.79 M-184.09 -4.33 C-188.76 -2.97, -194.74 0.15, -207.37 4.79" stroke="#1e1e1e" stroke-width="2" fill="none"></path></g><g transform="translate(1498.2825055803569 242.5040849468298) rotate(0 -103.21268136160688 2.3193860980136662)"><path d="M-183.67 12.77 C-190.66 10.2, -200.8 7.34, -207.37 4.79 M-183.67 12.77 C-188.56 10.17, -194.64 9.32, -207.37 4.79" stroke="#1e1e1e" stroke-width="2" fill="none"></path></g></g><mask></mask><g transform="translate(1317.571428571429 170.00000000000003) rotate(0 244.69700513567227 48.214285714285694)"><text x="0" y="67.57714285714275" font-family="Virgil, Segoe UI Emoji" font-size="77.14285714285703px" fill="#1e1e1e" text-anchor="start" style="white-space: pre;" direction="ltr" dominant-baseline="alphabetic">DESEMPEÑO</text></g><g transform="translate(1216.1428571428573 1187.1428571428573) rotate(0 173.03563145228804 33.928571428571445)"><text x="0" y="47.554285714285754" font-family="Virgil, Segoe UI Emoji" font-size="54.285714285714334px" fill="#1e1e1e" text-anchor="start" style="white-space: pre;" direction="ltr" dominant-baseline="alphabetic">EVALUACION</text></g><g stroke-linecap="round"><g transform="translate(919 1170) rotate(0 133.57142857142867 18.57142857142867)"><path d="M-0.88 -0.3 C43.52 6.07, 222.48 31.9, 267.12 38.11 M0.86 -1.5 C45.03 4.55, 221.95 29.88, 266.16 36.5" stroke="#1e1e1e" stroke-width="2" fill="none"></path></g><g transform="translate(919 1170) rotate(0 133.57142857142867 18.57142857142867)"><path d="M241.67 41.57 C250.01 39.88, 260.96 37.79, 266.16 36.5 M241.67 41.57 C248.94 40.86, 256.04 39.65, 266.16 36.5" stroke="#1e1e1e" stroke-width="2" fill="none"></path></g><g transform="translate(919 1170) rotate(0 133.57142857142867 18.57142857142867)"><path d="M244.14 24.65 C251.58 29.04, 261.63 33.06, 266.16 36.5 M244.14 24.65 C250.69 28.8, 257.08 32.46, 266.16 36.5" stroke="#1e1e1e" stroke-width="2" fill="none"></path></g></g><mask></mask><g stroke-linecap="round"><g transform="translate(1369 1334.2857142857144) rotate(0 30 0.7142857142856656)"><path d="M-0.82 -0.89 C8.95 -0.53, 49.07 2.03, 59.34 2.42 M0.95 1.26 C11.05 1.27, 51.79 0.56, 61.71 0.82" stroke="#1e1e1e" stroke-width="2" fill="none"></path></g><g transform="translate(1369 1334.2857142857144) rotate(0 30 0.7142857142856656)"><path d="M38.21 9.34 C45.24 5.32, 56.9 4.67, 61.71 0.82 M38.21 9.34 C44.99 6.15, 51.43 4.52, 61.71 0.82" stroke="#1e1e1e" stroke-width="2" fill="none"></path></g><g transform="translate(1369 1334.2857142857144) rotate(0 30 0.7142857142856656)"><path d="M38.23 -7.76 C45.29 -5.58, 56.95 -0.02, 61.71 0.82 M38.23 -7.76 C45.17 -5.77, 51.6 -2.23, 61.71 0.82" stroke="#1e1e1e" stroke-width="2" fill="none"></path></g></g><mask></mask><g transform="translate(1443.2857142857142 1320) rotate(0 115.169921875 12.5)"><text x="0" y="17.52" font-family="Virgil, Segoe UI Emoji" font-size="20px" fill="#1e1e1e" text-anchor="start" style="white-space: pre;" direction="ltr" dominant-baseline="alphabetic">NOTA: 40PTS, PESO 5</text></g><g transform="translate(827.7944248744425 1581.071428571429) rotate(0 389.31982421875 162.5)"><text x="0" y="17.52" font-family="Virgil, Segoe UI Emoji" font-size="20px" fill="#1e1e1e" text-anchor="start" style="white-space: pre;" direction="ltr" dominant-baseline="alphabetic">FASE 3</text><text x="0" y="42.519999999999996" font-family="Virgil, Segoe UI Emoji" font-size="20px" fill="#1e1e1e" text-anchor="start" style="white-space: pre;" direction="ltr" dominant-baseline="alphabetic"></text><text x="0" y="67.52" font-family="Virgil, Segoe UI Emoji" font-size="20px" fill="#1e1e1e" text-anchor="start" style="white-space: pre;" direction="ltr" dominant-baseline="alphabetic">-------------------</text><text x="0" y="92.52" font-family="Virgil, Segoe UI Emoji" font-size="20px" fill="#1e1e1e" text-anchor="start" style="white-space: pre;" direction="ltr" dominant-baseline="alphabetic">RANGO DE ACTUACION DEL EVALUADO</text><text x="0" y="117.52" font-family="Virgil, Segoe UI Emoji" font-size="20px" fill="#1e1e1e" text-anchor="start" style="white-space: pre;" direction="ltr" dominant-baseline="alphabetic">---------------------------------------------</text><text x="0" y="142.52" font-family="Virgil, Segoe UI Emoji" font-size="20px" fill="#1e1e1e" text-anchor="start" style="white-space: pre;" direction="ltr" dominant-baseline="alphabetic">OBJ:</text><text x="0" y="167.52" font-family="Virgil, Segoe UI Emoji" font-size="20px" fill="#1e1e1e" text-anchor="start" style="white-space: pre;" direction="ltr" dominant-baseline="alphabetic"> * TOTAL FASE 1</text><text x="0" y="192.52" font-family="Virgil, Segoe UI Emoji" font-size="20px" fill="#1e1e1e" text-anchor="start" style="white-space: pre;" direction="ltr" dominant-baseline="alphabetic"> * TOTAL FASE 2</text><text x="0" y="217.52" font-family="Virgil, Segoe UI Emoji" font-size="20px" fill="#1e1e1e" text-anchor="start" style="white-space: pre;" direction="ltr" dominant-baseline="alphabetic"> * PUNTAJE TOTAL</text><text x="0" y="242.52" font-family="Virgil, Segoe UI Emoji" font-size="20px" fill="#1e1e1e" text-anchor="start" style="white-space: pre;" direction="ltr" dominant-baseline="alphabetic">---------------------------------------------</text><text x="0" y="267.52" font-family="Virgil, Segoe UI Emoji" font-size="20px" fill="#1e1e1e" text-anchor="start" style="white-space: pre;" direction="ltr" dominant-baseline="alphabetic">NOTA: RANGO 0; 25 &lt;, RANGO 1; 50 &lt;, RANGO 2; 75 &lt;, RANGO 3; 100</text><text x="0" y="292.52" font-family="Virgil, Segoe UI Emoji" font-size="20px" fill="#1e1e1e" text-anchor="start" style="white-space: pre;" direction="ltr" dominant-baseline="alphabetic">        (NOMBRE COMPLETO DE CADA RANGO, NO VA LA PALABRA RANGO)</text><text x="0" y="317.52" font-family="Virgil, Segoe UI Emoji" font-size="20px" fill="#1e1e1e" text-anchor="start" style="white-space: pre;" direction="ltr" dominant-baseline="alphabetic"></text></g><g transform="translate(836.3658534458705 1926.7857142857147) rotate(0 205.18991088867188 112.5)"><text x="0" y="17.52" font-family="Virgil, Segoe UI Emoji" font-size="20px" fill="#1e1e1e" text-anchor="start" style="white-space: pre;" direction="ltr" dominant-baseline="alphabetic">FASE 4 (OPCIONAL) </text><text x="0" y="42.519999999999996" font-family="Virgil, Segoe UI Emoji" font-size="20px" fill="#1e1e1e" text-anchor="start" style="white-space: pre;" direction="ltr" dominant-baseline="alphabetic"></text><text x="0" y="67.52" font-family="Virgil, Segoe UI Emoji" font-size="20px" fill="#1e1e1e" text-anchor="start" style="white-space: pre;" direction="ltr" dominant-baseline="alphabetic">-------------------</text><text x="0" y="92.52" font-family="Virgil, Segoe UI Emoji" font-size="20px" fill="#1e1e1e" text-anchor="start" style="white-space: pre;" direction="ltr" dominant-baseline="alphabetic">EVALUACION CUALITATIVA</text><text x="0" y="117.52" font-family="Virgil, Segoe UI Emoji" font-size="20px" fill="#1e1e1e" text-anchor="start" style="white-space: pre;" direction="ltr" dominant-baseline="alphabetic">---------------------------------------------</text><text x="0" y="142.52" font-family="Virgil, Segoe UI Emoji" font-size="20px" fill="#1e1e1e" text-anchor="start" style="white-space: pre;" direction="ltr" dominant-baseline="alphabetic">OBJ:</text><text x="0" y="167.52" font-family="Virgil, Segoe UI Emoji" font-size="20px" fill="#1e1e1e" text-anchor="start" style="white-space: pre;" direction="ltr" dominant-baseline="alphabetic"> * ASPECTO POSITIVO DEL EVALUADO</text><text x="0" y="192.52" font-family="Virgil, Segoe UI Emoji" font-size="20px" fill="#1e1e1e" text-anchor="start" style="white-space: pre;" direction="ltr" dominant-baseline="alphabetic"> * ASPECTO NEGATIVO DEL EVALUADO</text><text x="0" y="217.52" font-family="Virgil, Segoe UI Emoji" font-size="20px" fill="#1e1e1e" text-anchor="start" style="white-space: pre;" direction="ltr" dominant-baseline="alphabetic"></text></g><g transform="translate(845.9643162318639 2168.928571428572) rotate(0 184.44989013671875 62.5)"><text x="0" y="17.52" font-family="Virgil, Segoe UI Emoji" font-size="20px" fill="#1e1e1e" text-anchor="start" style="white-space: pre;" direction="ltr" dominant-baseline="alphabetic">FASE 5</text><text x="0" y="42.519999999999996" font-family="Virgil, Segoe UI Emoji" font-size="20px" fill="#1e1e1e" text-anchor="start" style="white-space: pre;" direction="ltr" dominant-baseline="alphabetic">-------------------------------</text><text x="0" y="67.52" font-family="Virgil, Segoe UI Emoji" font-size="20px" fill="#1e1e1e" text-anchor="start" style="white-space: pre;" direction="ltr" dominant-baseline="alphabetic">RECOMENDACIONES Y COMPROMISO</text><text x="0" y="92.52" font-family="Virgil, Segoe UI Emoji" font-size="20px" fill="#1e1e1e" text-anchor="start" style="white-space: pre;" direction="ltr" dominant-baseline="alphabetic">----------------------------------</text><text x="0" y="117.52" font-family="Virgil, Segoe UI Emoji" font-size="20px" fill="#1e1e1e" text-anchor="start" style="white-space: pre;" direction="ltr" dominant-baseline="alphabetic">NOTA: OPCIONAL</text></g></svg>